<svg width="40" height="40" viewBox="0 0 40 40" fill="none" xmlns="http://www.w3.org/2000/svg">
<path d="M27.845 10.6728L21.1783 3.83549C21.0235 3.67631 20.8396 3.55001 20.6371 3.46384C20.4346 3.37767 20.2176 3.33331 19.9983 3.33331C19.7791 3.33331 19.562 3.37767 19.3596 3.46384C19.1571 3.55001 18.9732 3.67631 18.8183 3.83549L12.1517 10.6728C11.8392 10.9938 11.6638 11.4289 11.6641 11.8825C11.6644 12.3361 11.8404 12.771 12.1533 13.0915C12.4663 13.412 12.8906 13.5919 13.3329 13.5916C13.7751 13.5913 14.1992 13.4108 14.5117 13.0898L18.3333 9.17032V23.8467C18.3333 24.3 18.5089 24.7348 18.8215 25.0553C19.1341 25.3759 19.558 25.556 20 25.556C20.442 25.556 20.866 25.3759 21.1785 25.0553C21.4911 24.7348 21.6667 24.3 21.6667 23.8467V9.17032L25.4883 13.0898C25.8027 13.4012 26.2237 13.5735 26.6607 13.5696C27.0977 13.5657 27.5157 13.3859 27.8247 13.069C28.1337 12.7521 28.309 12.3234 28.3128 11.8752C28.3166 11.427 28.1486 10.9952 27.845 10.6728Z" fill="#9CA3AF"/>
<path d="M33.3333 22.992H25V23.8467C25 25.2067 24.4732 26.511 23.5355 27.4727C22.5979 28.4344 21.3261 28.9747 20 28.9747C18.6739 28.9747 17.4022 28.4344 16.4645 27.4727C15.5268 26.511 15 25.2067 15 23.8467V22.992H6.66668C5.78262 22.992 4.93478 23.3522 4.30965 23.9933C3.68453 24.6344 3.33334 25.504 3.33334 26.4107V33.248C3.33334 34.1547 3.68453 35.0242 4.30965 35.6653C4.93478 36.3065 5.78262 36.6666 6.66668 36.6666H33.3333C34.2174 36.6666 35.0652 36.3065 35.6904 35.6653C36.3155 35.0242 36.6667 34.1547 36.6667 33.248V26.4107C36.6667 25.504 36.3155 24.6344 35.6904 23.9933C35.0652 23.3522 34.2174 22.992 33.3333 22.992ZM29.1667 33.248C28.6722 33.248 28.1889 33.0976 27.7778 32.8159C27.3666 32.5341 27.0462 32.1337 26.857 31.6652C26.6678 31.1967 26.6183 30.6811 26.7147 30.1838C26.8112 29.6864 27.0493 29.2295 27.3989 28.871C27.7485 28.5124 28.194 28.2682 28.679 28.1693C29.1639 28.0703 29.6666 28.1211 30.1234 28.3152C30.5802 28.5092 30.9706 28.8379 31.2454 29.2595C31.5201 29.6812 31.6667 30.1769 31.6667 30.684C31.6667 31.364 31.4033 32.0162 30.9344 32.497C30.4656 32.9778 29.8297 33.248 29.1667 33.248Z" fill="#9CA3AF"/>
</svg>
